<?xml version="1.0" encoding="utf-8"?>
<!-- Generator: Adobe Illustrator 23.0.1, SVG Export Plug-In . SVG Version: 6.00 Build 0)  -->
<svg version="1.1" id="デザイン" xmlns="http://www.w3.org/2000/svg" xmlns:xlink="http://www.w3.org/1999/xlink" x="0px"
	 y="0px" viewBox="0 0 330.8 286.22" style="enable-background:new 0 0 330.8 286.22;" xml:space="preserve">
<style type="text/css">
	.st0{fill:#009CE5;}
	.st1{fill:#595757;}
</style>
<g>
	<g>
		<g>
			<g>
				<polygon class="st0" points="152.7,29.89 152.7,21.14 115.22,21.14 115.22,171.09 123.97,171.09 123.97,137.76 152.7,137.76 
					152.7,129 123.97,129 123.97,121.31 152.7,121.31 152.7,112.56 123.97,112.56 123.97,104.86 152.7,104.86 152.7,96.11 
					123.97,96.11 123.97,62.78 152.7,62.78 152.7,54.03 123.97,54.03 123.97,46.33 152.7,46.33 152.7,37.58 123.97,37.58 
					123.97,29.89 				"/>
				<rect x="82.33" y="21.14" class="st0" width="8.75" height="149.95"/>
				<rect x="98.77" y="21.14" class="st0" width="8.75" height="149.95"/>
			</g>
		</g>
		<path class="st0" d="M161.46,21.14v149.95h8.75v-33.33h53.31v33.33h8.75V21.14H161.46z M223.52,29.89v7.69h-53.31v-7.69H223.52z
			 M170.21,96.11V62.78h53.31v33.33H170.21z M223.52,104.86v7.69h-53.31v-7.69H223.52z M170.21,54.03v-7.7h53.31v7.7H170.21z
			 M170.21,129v-7.7h53.31v7.7H170.21z"/>
	</g>
	<g>
		<g>
			<path class="st1" d="M94.34,193.53c-0.23,2.42-1.07,5.28-3.21,6.79c-0.91,0.64-2.74,1.63-6.61,2l-0.6-1.91
				c3.95-0.23,7.2-1.18,8.05-5.02h-9.7v-1.86H94.34z M93.4,189.95v1.85H83.36v-1.85H93.4z"/>
		</g>
		<path class="st1" d="M109.74,202.35h-2.15v-6.4c-2.44,1.51-4.43,2.19-5.28,2.47l-1-1.78c6.43-2.01,9.88-6.19,10.8-7.32l1.82,1.26
			c-0.59,0.65-2.03,2.27-4.19,3.9V202.35z"/>
		<path class="st1" d="M133.76,190.41c-0.24,3.9-0.95,10.08-9.74,11.86l-0.88-1.89c6.51-1.23,7.85-4.55,8.32-7.99h-9.47v-1.98
			H133.76z"/>
		<path class="st1" d="M154.13,192.15v1.91h-2.42v1.53c0,5.14-3.95,6.35-7.23,6.82l-0.76-1.89c4.8-0.47,5.95-2.46,5.95-4.95v-1.51
			h-4.36v3.72h-2.03v-3.72h-2.33v-1.91h2.33v-2.62h2.03v2.62h4.36v-2.66h2.04v2.66H154.13z"/>
		<path class="st1" d="M168.03,202.35h-2.15v-6.4c-2.44,1.51-4.43,2.19-5.28,2.47l-1-1.78c6.43-2.01,9.88-6.19,10.8-7.32l1.82,1.26
			c-0.59,0.65-2.03,2.27-4.19,3.9V202.35z"/>
		<path class="st1" d="M186.7,199.34h5.26v1.97h-12.56v-1.97h5.2v-6.78h-4.45v-1.97h11.04v1.97h-4.51V199.34z"/>
		<path class="st1" d="M204.71,194.26c-0.67-0.45-2.22-1.45-4.69-2.25l0.92-1.74c1.1,0.33,2.8,0.89,4.86,2.13L204.71,194.26z
			 M200.31,199.93c4.49-0.36,8.7-1.86,10.64-8.96l1.77,1.24c-1.8,5.58-4.92,9.14-11.95,9.91L200.31,199.93z"/>
		<path class="st1" d="M230.03,190.17c-0.62,3.07-1.74,4.95-2.71,6.29c2.3,1.82,3.12,2.48,4.92,4.27l-1.69,1.63
			c-0.92-1.03-2.21-2.44-4.46-4.4c-1.42,1.59-3.59,3.36-5.89,4.37l-1.15-1.68c2.19-0.94,3.74-2,5.36-3.75
			c1.63-1.77,2.44-3.39,2.97-4.83h-7.49v-1.91H230.03z"/>
	</g>
	<g>
		<path class="st1" d="M223,227.47c-3.92,9.39-9.95,12.54-18.2,13.49v-25.39h-4.3v29.91c15.83-0.67,22.5-6.52,26.98-18.01H223z"/>
		<polygon class="st1" points="283.35,228.63 269.58,228.63 269.58,232.2 279.78,232.2 279.78,241.56 266.35,241.56 266.35,245.49 
			288.32,245.49 288.32,241.56 283.35,241.56 		"/>
		<rect x="291.2" y="228.63" class="st1" width="18.67" height="3.76"/>
		<g>
			<path class="st1" d="M261.13,223.13c0.77-0.36,1.56-0.73,2.38-1.13l-1.9-3.79c-0.75,0.39-1.47,0.75-2.16,1.1L261.13,223.13z"/>
			<g>
				<path class="st1" d="M257.04,224.95c0.78-0.34,1.57-0.7,2.41-1.08l-1.66-3.77c-0.83,0.41-1.62,0.79-2.38,1.15L257.04,224.95z"/>
				<path class="st1" d="M243.46,241.55c-3.61,0-4.12-0.29-4.12-2.63v-7.76c2.27-0.49,6.92-1.55,15.89-5.39l-1.61-3.66
					c-7.46,3.41-11.35,4.38-14.27,5.08v-11.63h-4.19v24.27c0,4.85,2.84,5.65,7.62,5.65c0,0,16.79,0,16.86,0v-3.95
					C259.27,241.55,243.46,241.55,243.46,241.55z"/>
			</g>
		</g>
		<g>
			<path class="st1" d="M69.15,217.29c-0.34,0-1.24,0.23-1.66,0.34c-0.19,0.04-4.37,1.02-8.3,1.32c0.04,1.21,0,1.77-0.04,4.68h10.52
				v4.03h-3.39v17.84h-3.92v-17.84h-3.28c-0.41,9.28-1.39,12.86-4.56,17.72l-4-1.32c1.24-1.39,2.04-2.34,2.87-4.37
				c1.51-3.77,1.85-8.22,1.85-14.1c0-3.36-0.04-6.71-0.19-10.07c0,0,6.71,0.13,12.33-2.04l2.26,2.71c0.11,0.15,0.38,0.53,0.38,0.79
				C70.02,217.29,69.8,217.29,69.15,217.29z"/>
			<path class="st1" d="M53.63,219.36v-3.36h-4.87l-0.04-4.31h-4.18v4.31h-5.75v3.36h1.72c0.53,1.36,1.06,3.36,1.28,4.15h-3v3.47
				h5.49v2.64h-5.49v3.58h4.06c-1.47,3.39-3.47,5.77-6,7.88l3.36,2.19c1.43-1.36,2.98-3.39,4.07-5.13v7.35h4.07v-6.9
				c0.45,0.6,0.98,1.13,1.92,1.77l2.41-2.79c-1.09-0.87-2.98-2.49-4.34-4.37h5.29v-3.58h-5.29v-2.64h5.29v-3.47h-2.68
				c0.72-1.51,1.09-2.6,1.51-4.15H53.63z M47.1,223.51h-1.4c-0.38-1.47-0.83-2.9-1.32-4.15h3.92
				C47.96,221.02,47.4,222.64,47.1,223.51z"/>
		</g>
		<path class="st1" d="M110.58,228.07v-3.21H96.63v-1.62h9.77v-2.9h-9.77v-1.47h9.77v-3.09h-4.76c0.3-0.53,0.57-1.06,0.79-1.55
			c0.72-0.34,1.02-0.49,1.02-0.83c0-0.45-0.79-0.49-1.02-0.53l-3.7-0.34c-0.53,1.47-0.83,1.92-1.55,3.24h-8.45l2.19-0.72
			c-0.15-0.3-0.45-0.72-0.94-1.39c-0.45-0.6-0.79-1.06-0.98-1.28l-3.73,1.13c0.53,0.75,1.51,2.15,1.58,2.26h-5.17v3.09h10.26v1.47
			H81.69v2.9h10.26v1.62H78.04v3.21h8.26c-1.06,1.92-3.47,5.92-9.46,8.75l3.13,3.28c2.45-1.4,3.92-2.64,5.73-4.49v9.88h3.96v-0.79
			h12.41v0.79h3.96v-15.8H90.14c0.23-0.3,0.49-0.68,0.98-1.62H110.58z M102.06,241.72H89.65v-1.43h12.41V241.72z M102.06,237.84
			H89.65v-1.43h12.41V237.84z M102.06,232.56v1.43H89.65v-1.43H102.06z"/>
		<g>
			<rect x="118.38" y="216.98" class="st1" width="12.52" height="3.32"/>
			<rect x="120.49" y="211.61" class="st1" width="8.56" height="3.05"/>
			<path class="st1" d="M119.17,233.54v11.95h3.62v-1.77h3.7v1.77h3.62v-11.95H119.17z M126.49,240.37h-3.7v-3.51h3.7V240.37z"/>
			<path class="st1" d="M143.42,214.99c0.26-0.15,0.34-0.42,0.34-0.57c0-0.19-0.08-0.34-0.3-0.41l-4.15-1.36
				c-2.6,4.6-5.28,7.24-8.75,9.73l2.64,2.68c1.06-0.75,1.77-1.36,2.68-2.19v1.96h10.82v-1.81c1.32,0.9,1.77,1.21,2.79,1.7l2.71-2.64
				C146.93,219.4,144.55,216.5,143.42,214.99z M137.27,221.59c1.09-1.02,1.77-1.77,3.58-4.11c2.07,2.41,2.87,3.13,3.96,4.11H137.27z
				"/>
			<path class="st1" d="M131.88,226.72v18.78h3.47v-8.63h1.7v7.92h3.05v-7.92h1.77v7.92h3.05v-1.43l1.47,2.15
				c2.26-0.04,3.85-0.38,3.85-2.75v-16.03H131.88z M137.05,233.24h-1.7v-3.09h1.7V233.24z M141.87,233.24h-1.77v-3.09h1.77V233.24z
				 M146.78,241.05c0,0.75-0.26,0.98-0.75,0.98c-0.11,0-0.49,0-1.09-0.11v-5.05h1.85V241.05z M146.78,233.24h-1.85v-3.09h1.85
				V233.24z"/>
			<rect x="119.17" y="222.62" class="st1" width="10.94" height="2.87"/>
			<rect x="119.17" y="227.8" class="st1" width="10.94" height="2.87"/>
		</g>
		<path class="st1" d="M178.52,235.73c3.88-4.71,5.5-9.01,7.24-14.25h5.28v-3.88h-13.42v-5.89h-4.68v5.89h-13.54v3.88h4.75
			c0.64,1.89,1.17,3.43,2.53,6.03c2.3,4.41,4.19,6.56,5.62,8.14c-1.47,1.25-2.83,2.38-6.49,4c-3.62,1.58-5.88,2.07-7.84,2.49
			l3.36,3.62c7.2-2.41,10.29-4.07,14.1-7.05c4.56,3.73,7.88,5.35,12.9,6.79l2.75-4.15C186.06,240.25,182.82,238.97,178.52,235.73z
			 M175.24,232.71c-2.6-2.98-4.37-5.66-6.49-11.24h11.92C179.88,224.42,178.45,228.83,175.24,232.71z"/>
	</g>
	<g>
		<path class="st1" d="M114.85,261.93c-0.13,0-0.16-0.13-0.24-0.42c-0.12-0.42-0.36-0.66-1.16-0.66h-1.03v1.88
			c0,0.76-0.01,1,0.73,1.06c0.41,0.04,0.48,0.04,0.48,0.2c0,0.11-0.07,0.17-0.28,0.17c-0.3,0-1.08-0.04-1.42-0.04
			c-0.65,0-1.43,0.04-1.75,0.04c-0.16,0-0.19-0.06-0.19-0.18c0-0.14,0.05-0.16,0.37-0.19c0.54-0.06,0.55-0.31,0.55-0.77v-4.89
			c0-0.3,0-0.68-0.46-0.75c-0.37-0.06-0.48-0.04-0.48-0.19c0-0.19,0.19-0.18,0.26-0.18c0.1,0,0.3,0.01,0.5,0.01
			c0.2,0.01,0.41,0.02,0.52,0.02h4.14c0.25,0,0.31,0.07,0.26,0.24l-0.41,1.26c-0.08,0.25-0.14,0.31-0.23,0.31
			c-0.16,0-0.17-0.08-0.2-0.36l-0.14-0.95h-2.27v2.83h1.03c0.55,0,1.06-0.1,1.21-0.86c0.01-0.06,0.05-0.22,0.22-0.22
			c0.01,0,0.17,0.01,0.17,0.22c0,0.17-0.04,0.86-0.04,1.01c0,0.5,0.04,1.06,0.04,1.15C115.04,261.84,115.03,261.93,114.85,261.93z"
			/>
		<path class="st1" d="M120.71,262.62c0,0.94,0,1.13,0.43,1.17c0.35,0.04,0.4,0.06,0.4,0.19c0,0.14-0.06,0.17-0.25,0.17
			c-0.26,0-0.9-0.04-1.25-0.04c-0.37,0-1,0.04-1.26,0.04c-0.17,0-0.3,0-0.3-0.17c0-0.13,0.06-0.14,0.46-0.18
			c0.41-0.04,0.42-0.25,0.42-1.19v-1.92c0-0.41-0.05-0.42-0.43-0.58c-0.38-0.16-0.4-0.14-0.4-0.26c0-0.13,0.2-0.22,0.37-0.28
			l1.21-0.48c0.07-0.02,0.31-0.1,0.4-0.1c0.2,0,0.2,0.11,0.2,0.42V262.62z M120.06,258.22c-0.43,0-0.79-0.35-0.79-0.79
			s0.35-0.8,0.79-0.8c0.44,0,0.8,0.35,0.8,0.82C120.86,257.88,120.49,258.22,120.06,258.22z"/>
		<path class="st1" d="M126.39,262.79c0,0.59,0,0.97,0.59,1.01c0.44,0.02,0.55,0.02,0.55,0.19c0,0.14-0.08,0.17-0.23,0.17
			c-0.36,0-1.13-0.04-1.67-0.04c-0.22,0-0.84,0.04-1.19,0.04c-0.1,0-0.24-0.01-0.24-0.17c0-0.14,0.05-0.17,0.48-0.23
			c0.3-0.04,0.35-0.34,0.35-1.13v-1.81c0-0.34,0-0.49-0.14-0.56c-0.43-0.16-0.6-0.22-0.64-0.26c-0.04-0.02-0.04-0.08-0.04-0.11
			c0-0.13,0.07-0.16,0.36-0.28l1.21-0.48c0.12-0.05,0.31-0.12,0.43-0.12c0.17,0,0.17,0.13,0.17,0.38v0.36
			c0.36-0.2,0.83-0.47,1.1-0.6c0.19-0.1,0.31-0.14,0.49-0.14c0.44,0,0.52,0.52,0.52,1c0,0.18,0,0.66-0.34,0.66
			c-0.14,0-0.23-0.08-0.36-0.28c-0.08-0.13-0.26-0.4-0.56-0.4c-0.28,0-0.6,0.16-0.85,0.28V262.79z"/>
		<path class="st1" d="M131.28,262.94c0-0.19,0.01-0.4,0.19-0.4c0.11,0,0.16,0.06,0.22,0.28c0.07,0.28,0.31,1.07,1.22,1.07
			c0.38,0,0.74-0.29,0.74-0.72c0-0.46-0.26-0.68-1.2-1.25c-0.83-0.5-1.12-0.9-1.12-1.46c0-0.59,0.36-1.45,1.92-1.45
			c0.41,0,1.25,0.06,1.34,0.22c0.05,0.08,0.08,0.97,0.08,1.14c0,0.07,0,0.22-0.17,0.22c-0.12,0-0.18-0.04-0.29-0.41
			c-0.13-0.46-0.47-0.75-0.96-0.75c-0.48,0-0.7,0.35-0.7,0.61c0,0.41,0.41,0.66,1.01,1c0.76,0.42,1.27,0.79,1.27,1.62
			c0,0.59-0.31,1.66-2.1,1.66c-0.42,0-1.24-0.07-1.4-0.17c-0.1-0.05-0.11-0.11-0.1-0.37L131.28,262.94z"/>
		<path class="st1" d="M139.53,262.02c0,0.58,0,0.72,0.11,0.91c0.1,0.14,0.35,0.32,0.62,0.32c0.13,0,0.25-0.04,0.61-0.18
			c0.05-0.02,0.08-0.02,0.12-0.02c0.12,0,0.18,0.1,0.18,0.18c0,0.14-0.13,0.23-0.47,0.44c-0.68,0.44-0.96,0.56-1.29,0.56
			c-0.58,0-1.01-0.46-1.09-0.54c-0.16-0.19-0.14-0.46-0.14-0.95v-2.97h-0.43c-0.14,0-0.32,0-0.32-0.16c0-0.1,0.13-0.22,0.32-0.38
			l1.27-1.08c0.24-0.2,0.26-0.22,0.34-0.22c0.18,0,0.18,0.14,0.18,0.44v0.78h1.43c0.22,0,0.22,0.02,0.22,0.24
			c0,0.13-0.01,0.22-0.06,0.25c-0.04,0.01-0.34,0.01-0.41,0.01h-1.18V262.02z"/>
		<path class="st1" d="M152.13,261.3l-0.54,1.49c-0.29,0.79,0.06,0.9,0.76,1.02c0.07,0.01,0.17,0.05,0.17,0.18
			c0,0.19-0.16,0.17-0.31,0.17c-0.22,0-0.82-0.04-1.08-0.04c-0.25,0-0.74,0.04-1.06,0.04c-0.14,0-0.26,0-0.26-0.17
			c0-0.14,0.1-0.17,0.2-0.19c0.78-0.13,1-0.78,1.26-1.5l1.51-4.17c0.06-0.17,0.31-1.03,0.34-1.08c0.05-0.08,0.12-0.12,0.29-0.12
			h0.91c0.25,0,0.29,0.07,0.41,0.52l1.27,4.58c0.4,1.44,0.54,1.7,1.21,1.77c0.07,0.01,0.26,0.04,0.26,0.19s-0.02,0.17-0.32,0.17
			c-0.4,0-1.19-0.04-1.27-0.04c-0.49,0-1.69,0.04-1.82,0.04c-0.12,0-0.25-0.02-0.25-0.17s0.13-0.19,0.26-0.2
			c0.79-0.07,0.85-0.35,0.65-1.08l-0.4-1.4H152.13z M154.19,260.82l-0.8-2.94h-0.02l-1.04,2.94H154.19z"/>
		<path class="st1" d="M163.22,260.33c0-0.31-0.01-0.74-0.52-0.78c-0.48-0.04-0.54-0.02-0.54-0.19s0.12-0.17,0.42-0.17
			c0.19,0,0.77,0,0.9-0.01c0.14,0,0.77-0.06,0.9-0.06c0.19,0,0.19,0.06,0.19,0.35v3.78c0,0.26,0.04,0.26,0.37,0.28
			c0.19,0.01,0.41,0.01,0.41,0.17c0,0.18-0.32,0.25-0.47,0.29l-1.32,0.29c-0.16,0.04-0.18,0.04-0.2,0.04
			c-0.14,0-0.14-0.06-0.14-0.31v-0.43c-0.18,0.07-0.95,0.47-1.1,0.54c-0.36,0.14-0.61,0.2-0.88,0.2c-0.42,0-0.83-0.22-1.06-0.58
			c-0.22-0.34-0.22-0.83-0.22-1.21v-2.17c0-0.46,0-0.75-0.47-0.78c-0.23-0.01-0.37-0.01-0.37-0.19c0-0.18,0.19-0.18,0.35-0.18
			c0.17,0,0.67-0.01,0.95-0.02c0.34-0.01,0.58-0.06,0.71-0.06c0.19,0,0.19,0.07,0.19,0.37v2.51c0,0.73,0.02,1.33,0.89,1.33
			c0.41,0,0.72-0.11,1.01-0.2V260.33z"/>
		<path class="st1" d="M169.44,262.02c0,0.58,0,0.72,0.11,0.91c0.1,0.14,0.35,0.32,0.62,0.32c0.13,0,0.25-0.04,0.61-0.18
			c0.05-0.02,0.08-0.02,0.12-0.02c0.12,0,0.18,0.1,0.18,0.18c0,0.14-0.13,0.23-0.47,0.44c-0.68,0.44-0.96,0.56-1.29,0.56
			c-0.58,0-1.01-0.46-1.09-0.54c-0.16-0.19-0.14-0.46-0.14-0.95v-2.97h-0.43c-0.14,0-0.32,0-0.32-0.16c0-0.1,0.13-0.22,0.32-0.38
			l1.27-1.08c0.24-0.2,0.26-0.22,0.34-0.22c0.18,0,0.18,0.14,0.18,0.44v0.78h1.43c0.22,0,0.22,0.02,0.22,0.24
			c0,0.13-0.01,0.22-0.06,0.25c-0.04,0.01-0.34,0.01-0.41,0.01h-1.18V262.02z"/>
		<path class="st1" d="M175.09,262.51c0.02,0.78,0.02,0.88,0.04,0.91c0.06,0.31,0.18,0.35,0.44,0.38c0.11,0.01,0.23,0.05,0.23,0.17
			c0,0.1-0.07,0.18-0.28,0.18c-0.1,0-0.34-0.01-0.59-0.02c-0.24,0-0.48-0.01-0.56-0.01c-0.1,0-0.36,0.01-0.61,0.01
			c-0.26,0.01-0.52,0.02-0.61,0.02c-0.08,0-0.23-0.04-0.23-0.17c0-0.16,0.13-0.17,0.31-0.18c0.46-0.05,0.5-0.13,0.5-1.32v-4.73
			c0-0.35,0-0.38-0.04-0.46c-0.02-0.05-0.05-0.06-0.34-0.19l-0.22-0.08c-0.19-0.08-0.25-0.11-0.25-0.22c0-0.14,0.05-0.16,0.47-0.28
			l1.14-0.34c0.13-0.04,0.34-0.08,0.4-0.08c0.19,0,0.19,0.11,0.19,0.52v3.18c0.61-0.62,1.19-0.8,1.69-0.8
			c0.54,0,1.14,0.23,1.42,0.86c0.1,0.22,0.13,0.31,0.13,1.33v1.51c0,0.86,0.02,1.02,0.42,1.07c0.19,0.02,0.36,0.05,0.36,0.2
			c0,0.17-0.18,0.17-0.22,0.17c-0.1,0-0.38-0.01-0.67-0.02c-0.28,0-0.55-0.01-0.65-0.01s-0.36,0.01-0.61,0.01
			c-0.26,0.01-0.52,0.02-0.61,0.02c-0.07,0-0.22-0.02-0.22-0.18c0-0.14,0.12-0.16,0.38-0.18c0.46-0.04,0.46-0.22,0.46-1.42v-0.96
			c0-0.61,0-1.49-0.88-1.49c-0.12,0-0.52,0-1.01,0.43V262.51z"/>
		<path class="st1" d="M183.37,264.3c-1.69,0-2.64-1.19-2.64-2.63c0-1.58,1.16-2.66,2.75-2.66c1.83,0,2.66,1.27,2.66,2.63
			C186.14,263.11,185.16,264.3,183.37,264.3z M183.41,259.42c-0.96,0-1.08,1.19-1.08,2.18c0,1.4,0.24,2.29,1.12,2.29
			c0.96,0,1.1-1.25,1.1-2.2C184.55,260.67,184.39,259.42,183.41,259.42z"/>
		<path class="st1" d="M190.72,262.79c0,0.59,0,0.97,0.59,1.01c0.44,0.02,0.55,0.02,0.55,0.19c0,0.14-0.08,0.17-0.23,0.17
			c-0.36,0-1.13-0.04-1.67-0.04c-0.22,0-0.84,0.04-1.19,0.04c-0.1,0-0.24-0.01-0.24-0.17c0-0.14,0.05-0.17,0.48-0.23
			c0.3-0.04,0.35-0.34,0.35-1.13v-1.81c0-0.34,0-0.49-0.14-0.56c-0.43-0.16-0.6-0.22-0.64-0.26c-0.04-0.02-0.04-0.08-0.04-0.11
			c0-0.13,0.07-0.16,0.36-0.28l1.21-0.48c0.12-0.05,0.31-0.12,0.43-0.12c0.17,0,0.17,0.13,0.17,0.38v0.36
			c0.36-0.2,0.83-0.47,1.1-0.6c0.19-0.1,0.31-0.14,0.49-0.14c0.44,0,0.52,0.52,0.52,1c0,0.18,0,0.66-0.34,0.66
			c-0.14,0-0.23-0.08-0.36-0.28c-0.08-0.13-0.26-0.4-0.56-0.4c-0.28,0-0.6,0.16-0.85,0.28V262.79z"/>
		<path class="st1" d="M197.41,260.57c-0.02,0.07-0.1,0.13-0.17,0.13c-0.1,0-0.17-0.05-0.19-0.13l-0.58-2.11
			c-0.08-0.29-0.12-0.55-0.12-0.75c0-0.52,0.38-0.9,0.86-0.9c0.54,0,0.88,0.42,0.88,0.88c0,0.24-0.12,0.68-0.14,0.78L197.41,260.57z
			"/>
		<path class="st1" d="M201.55,262.94c0-0.19,0.01-0.4,0.19-0.4c0.11,0,0.16,0.06,0.22,0.28c0.07,0.28,0.31,1.07,1.22,1.07
			c0.38,0,0.74-0.29,0.74-0.72c0-0.46-0.26-0.68-1.2-1.25c-0.83-0.5-1.12-0.9-1.12-1.46c0-0.59,0.36-1.45,1.92-1.45
			c0.41,0,1.25,0.06,1.34,0.22c0.05,0.08,0.08,0.97,0.08,1.14c0,0.07,0,0.22-0.17,0.22c-0.12,0-0.18-0.04-0.29-0.41
			c-0.13-0.46-0.47-0.75-0.96-0.75c-0.48,0-0.7,0.35-0.7,0.61c0,0.41,0.41,0.66,1.01,1c0.76,0.42,1.27,0.79,1.27,1.62
			c0,0.59-0.31,1.66-2.1,1.66c-0.42,0-1.24-0.07-1.4-0.17c-0.1-0.05-0.11-0.11-0.1-0.37L201.55,262.94z"/>
	</g>
</g>
</svg>
