<?xml version="1.0" standalone="no"?>
<!DOCTYPE svg PUBLIC "-//W3C//DTD SVG 20010904//EN"
 "http://www.w3.org/TR/2001/REC-SVG-20010904/DTD/svg10.dtd">
<svg version="1.0" xmlns="http://www.w3.org/2000/svg"
 width="357.000000pt" height="357.000000pt" viewBox="0 0 357.000000 357.000000"
 preserveAspectRatio="xMidYMid meet">
<metadata>
Created by potrace 1.11, written by Peter Selinger 2001-2013
</metadata>
<g transform="translate(0.000000,357.000000) scale(0.100000,-0.100000)"
fill="#000000" stroke="none">
<path d="M2710 3305 c0 -170 4 -265 10 -265 6 0 10 95 10 265 0 170 -4 265
-10 265 -6 0 -10 -95 -10 -265z"/>
<path d="M2530 3095 c0 -258 1 -265 20 -265 19 0 20 7 20 265 0 258 -1 265
-20 265 -19 0 -20 -7 -20 -265z"/>
<path d="M2368 3018 c-1 -128 -2 -249 -2 -268 -1 -33 1 -35 34 -35 34 0 35 1
35 38 -1 20 -2 141 -3 267 l-2 230 -30 0 -30 0 -2 -232z"/>
<path d="M2200 3072 c0 -55 -3 -174 -7 -265 l-6 -167 51 0 52 0 0 265 0 265
-45 0 -45 0 0 -98z"/>
<path d="M2018 3013 c-1 -54 -2 -174 -2 -268 l-1 -170 60 0 60 0 3 75 c2 41 1
162 -3 268 l-7 192 -54 0 -54 0 -2 -97z"/>
<path d="M1825 2978 c-3 -35 -5 -153 -3 -263 l3 -200 70 0 70 0 1 220 c1 121
-1 239 -3 263 l-5 42 -63 0 -63 0 -7 -62z"/>
<path d="M1634 2981 c-2 -2 -4 -123 -4 -268 l0 -263 75 0 75 0 -2 266 -3 266
-68 2 c-37 1 -70 0 -73 -3z"/>
<path d="M1460 2655 l0 -265 65 0 65 0 0 265 0 265 -65 0 -65 0 0 -265z"/>
<path d="M1307 2854 c-4 -4 -7 -124 -7 -266 l0 -258 60 0 60 0 -2 263 -3 262
-50 3 c-28 2 -54 0 -58 -4z"/>
<path d="M1164 2786 c-2 -6 -5 -127 -6 -269 l-3 -257 58 0 57 0 0 265 c0 258
-1 265 -20 267 -62 5 -82 4 -86 -6z"/>
<path d="M1042 2463 l3 -268 45 0 45 0 0 53 c-1 28 -2 149 -3 267 l-2 215 -45
0 -45 0 2 -267z"/>
<path d="M948 2533 c-2 -128 -2 -131 -5 -35 -3 94 -5 102 -23 102 -18 0 -20
-8 -22 -62 0 -35 -3 -48 -5 -30 -2 17 -8 32 -14 32 -5 0 -9 -109 -9 -270 0
-173 4 -270 10 -270 6 0 10 15 10 34 0 30 3 35 28 38 23 3 27 7 25 33 -1 30
-1 30 44 26 l44 -3 -5 248 c-4 137 -6 259 -6 272 0 19 -5 22 -35 22 l-35 0 -2
-137z"/>
<path d="M2718 2505 c-13 -59 -94 -126 -258 -213 -139 -75 -283 -130 -680
-262 -384 -127 -525 -183 -665 -261 -115 -64 -176 -108 -212 -155 l-28 -37 -3
-281 -2 -281 21 42 c57 114 333 256 789 405 473 155 657 226 824 318 105 58
197 134 215 177 8 19 11 112 9 303 -2 151 -6 262 -10 245z"/>
<path d="M2722 1515 c-9 -83 -203 -214 -484 -326 -57 -23 -254 -92 -439 -154
-487 -164 -707 -260 -833 -362 -97 -79 -96 -75 -96 -388 1 -232 3 -266 14
-240 18 41 68 89 146 140 142 93 300 158 735 305 481 162 648 230 801 325 77
48 150 120 159 157 3 13 4 145 3 293 -2 149 -4 261 -6 250z"/>
</g>
</svg>
